<svg width="408" height="156" viewBox="0 0 408 156" fill="none" xmlns="http://www.w3.org/2000/svg">
<rect y="9" width="408" height="138" fill="black"/>
<path d="M132.296 124.512C126.067 124.512 120.435 123.104 115.4 120.288C110.451 117.387 106.525 113.376 103.624 108.256C100.723 103.136 99.272 97.248 99.272 90.592C99.272 83.8507 100.723 77.9627 103.624 72.928C106.525 67.808 110.451 63.84 115.4 61.024C120.435 58.1227 126.067 56.672 132.296 56.672C138.184 56.672 143.475 58.0373 148.168 60.768C152.947 63.4987 156.701 67.3813 159.432 72.416C162.248 77.4507 163.656 83.5093 163.656 90.592C163.656 97.504 162.291 103.52 159.56 108.64C156.829 113.76 153.075 117.685 148.296 120.416C143.603 123.147 138.269 124.512 132.296 124.512ZM132.68 118.752C137.8 118.752 142.365 117.6 146.376 115.296C150.472 112.907 153.672 109.579 155.976 105.312C158.365 101.045 159.56 96.1387 159.56 90.592C159.56 84.96 158.365 80.0533 155.976 75.872C153.672 71.6053 150.472 68.32 146.376 66.016C142.365 63.6267 137.8 62.432 132.68 62.432C127.56 62.432 122.952 63.6267 118.856 66.016C114.845 68.32 111.645 71.6053 109.256 75.872C106.952 80.0533 105.8 84.96 105.8 90.592C105.8 96.1387 106.952 101.045 109.256 105.312C111.645 109.579 114.845 112.907 118.856 115.296C122.952 117.6 127.56 118.752 132.68 118.752ZM159.688 124V102.112L160.84 90.464L159.56 78.816V29.024H165.96V124H159.688ZM219.055 124.512C212.655 124.512 206.938 123.061 201.903 120.16C196.954 117.259 192.986 113.248 189.999 108.128C187.098 103.008 185.647 97.1627 185.647 90.592C185.647 83.936 187.098 78.0907 189.999 73.056C192.986 67.936 196.954 63.9253 201.903 61.024C206.938 58.1227 212.655 56.672 219.055 56.672C225.455 56.672 231.172 58.1227 236.207 61.024C241.242 63.9253 245.21 67.936 248.111 73.056C251.012 78.0907 252.463 83.936 252.463 90.592C252.463 97.1627 251.012 103.008 248.111 108.128C245.21 113.248 241.242 117.259 236.207 120.16C231.172 123.061 225.455 124.512 219.055 124.512ZM219.055 118.752C224.175 118.752 228.783 117.6 232.879 115.296C236.975 112.907 240.175 109.579 242.479 105.312C244.783 101.045 245.935 96.1387 245.935 90.592C245.935 84.96 244.783 80.0533 242.479 75.872C240.175 71.6053 236.975 68.32 232.879 66.016C228.783 63.6267 224.175 62.432 219.055 62.432C213.935 62.432 209.327 63.6267 205.231 66.016C201.22 68.32 198.02 71.6053 195.631 75.872C193.327 80.0533 192.175 84.96 192.175 90.592C192.175 96.1387 193.327 101.045 195.631 105.312C198.02 109.579 201.22 112.907 205.231 115.296C209.327 117.6 213.935 118.752 219.055 118.752ZM298.814 124.512C292.329 124.512 286.526 123.061 281.406 120.16C276.371 117.259 272.361 113.248 269.374 108.128C266.473 103.008 265.022 97.1627 265.022 90.592C265.022 83.936 266.473 78.048 269.374 72.928C272.361 67.808 276.371 63.84 281.406 61.024C286.526 58.1227 292.329 56.672 298.814 56.672C304.19 56.672 309.054 57.696 313.406 59.744C317.843 61.792 321.427 64.864 324.158 68.96L319.422 72.416C317.033 69.0027 314.046 66.4853 310.462 64.864C306.878 63.2427 302.995 62.432 298.814 62.432C293.609 62.432 288.915 63.6267 284.734 66.016C280.638 68.32 277.395 71.6053 275.006 75.872C272.702 80.0533 271.55 84.96 271.55 90.592C271.55 96.224 272.702 101.173 275.006 105.44C277.395 109.621 280.638 112.907 284.734 115.296C288.915 117.6 293.609 118.752 298.814 118.752C302.995 118.752 306.878 117.941 310.462 116.32C314.046 114.699 317.033 112.181 319.422 108.768L324.158 112.224C321.427 116.32 317.843 119.392 313.406 121.44C309.054 123.488 304.19 124.512 298.814 124.512ZM360.214 124.512C354.667 124.512 349.462 123.701 344.598 122.08C339.819 120.459 336.107 118.411 333.462 115.936L336.406 110.816C338.966 113.035 342.379 114.955 346.646 116.576C350.913 118.112 355.521 118.88 360.47 118.88C367.467 118.88 372.502 117.728 375.574 115.424C378.646 113.12 380.182 110.091 380.182 106.336C380.182 103.605 379.371 101.472 377.75 99.936C376.214 98.3147 374.123 97.0773 371.478 96.224C368.833 95.3707 365.931 94.688 362.774 94.176C359.617 93.5787 356.459 92.9387 353.302 92.256C350.145 91.5733 347.243 90.592 344.598 89.312C341.953 88.032 339.819 86.2827 338.198 84.064C336.662 81.76 335.894 78.7307 335.894 74.976C335.894 71.5627 336.833 68.4907 338.71 65.76C340.587 63.0293 343.403 60.8533 347.158 59.232C350.913 57.5253 355.606 56.672 361.238 56.672C365.419 56.672 369.601 57.2693 373.782 58.464C378.049 59.6587 381.505 61.2373 384.15 63.2L381.206 68.32C378.39 66.1867 375.233 64.6507 371.734 63.712C368.235 62.7733 364.694 62.304 361.11 62.304C354.625 62.304 349.846 63.4987 346.774 65.888C343.787 68.2773 342.294 71.264 342.294 74.848C342.294 77.664 343.062 79.9253 344.598 81.632C346.219 83.2533 348.353 84.5333 350.998 85.472C353.643 86.3253 356.545 87.0507 359.702 87.648C362.859 88.16 366.017 88.7573 369.174 89.44C372.331 90.1227 375.233 91.104 377.878 92.384C380.523 93.5787 382.614 95.2853 384.15 97.504C385.771 99.6373 386.582 102.539 386.582 106.208C386.582 109.877 385.558 113.077 383.51 115.808C381.547 118.539 378.603 120.672 374.678 122.208C370.753 123.744 365.931 124.512 360.214 124.512Z" fill="white"/>
<path d="M45.544 125.792C38.9733 125.792 33 124.683 27.624 122.464C22.3333 120.16 17.9387 116.875 14.44 112.608L28.264 96.224C30.6533 99.296 33.128 101.643 35.688 103.264C38.248 104.8 40.936 105.568 43.752 105.568C51.2613 105.568 55.016 101.216 55.016 92.512V53.984H24.04V34.4H80.104V90.976C80.104 102.667 77.16 111.413 71.272 117.216C65.384 122.933 56.808 125.792 45.544 125.792Z" fill="white"/>
</svg>
